<svg xmlns="http://www.w3.org/2000/svg" viewBox="0 0 1600 1000" fill="none"><title>Original royal hall silhouette placeholder</title><defs><linearGradient id="fade" x2="0" y2="1"><stop stop-color="#284a77" stop-opacity=".25"/><stop offset="1" stop-color="#0a1220" stop-opacity="0"/></linearGradient></defs><path d="M920 850V330Q920 130 1160 30q240 100 240 300v520Z" fill="url(#fade)" stroke="#c8a86a" stroke-opacity=".16"/><path d="M952 850V342q0-180 208-270 208 90 208 270v508M1160 74v700M957 348h405" stroke="#c8a86a" stroke-opacity=".1"/><path d="M40 900V410Q40 160 270 50q230 110 230 360v490M70 900V425q0-225 200-335 200 110 200 335v475" stroke="#284a77" stroke-opacity=".25"/><path d="M0 850h1600M0 875h1600M600 0v875M635 0v875M1480 0v875M1515 0v875" stroke="#c8a86a" stroke-opacity=".06"/></svg>