<svg xmlns="http://www.w3.org/2000/svg" viewBox="0 0 600 800"><defs><radialGradient id="g"><stop stop-color="#e99567" stop-opacity=".7"/><stop offset="1" stop-color="#080e1a"/></radialGradient><linearGradient id="r" x2="1" y2="1"><stop stop-color="#e99567"/><stop offset=".5" stop-color="#243548"/><stop offset="1" stop-color="#0b1422"/></linearGradient><filter id="b"><feGaussianBlur stdDeviation="13"/></filter></defs><rect width="600" height="800" fill="#090e19"/><rect width="600" height="800" fill="url(#g)"/><circle cx="300" cy="280" r="192" fill="none" stroke="#e99567" stroke-width="2" opacity=".6"/><circle cx="300" cy="280" r="172" fill="none" stroke="#e99567" opacity=".25"/><path d="M0 640L115 405 190 560 320 360 450 580 535 440 600 590V800H0" fill="#0b1521"/><path d="M135 780L200 490 260 385 252 290 300 235 348 290 340 385 400 490 465 780Z" fill="url(#r)" stroke="#e99567" stroke-opacity=".4"/><path d="M218 330L170 180 274 258 300 205 328 258 430 180 382 330 338 305 300 325 262 305Z" fill="url(#r)" stroke="#e99567"/><path d="M265 335L287 344M313 344L335 335" stroke="#e99567" stroke-width="5"/><path d="M300 395L350 483 300 572 250 483Z" fill="#e99567" opacity=".3" filter="url(#b)"/><path d="M300 419L328 481 300 515 272 481Z" fill="#e99567"/><path d="M200 490L105 620 180 670M400 490L495 620 420 670" fill="none" stroke="#e99567" stroke-width="4" opacity=".6"/><circle cx="288" cy="456" r="1" fill="#e99567" opacity=".6"/><circle cx="425" cy="553" r="2" fill="#e99567" opacity=".6"/><circle cx="562" cy="650" r="3" fill="#e99567" opacity=".6"/><circle cx="99" cy="747" r="1" fill="#e99567" opacity=".6"/><circle cx="236" cy="84" r="2" fill="#e99567" opacity=".6"/><circle cx="373" cy="181" r="3" fill="#e99567" opacity=".6"/><circle cx="510" cy="278" r="1" fill="#e99567" opacity=".6"/><circle cx="47" cy="375" r="2" fill="#e99567" opacity=".6"/><circle cx="184" cy="472" r="3" fill="#e99567" opacity=".6"/><circle cx="321" cy="569" r="1" fill="#e99567" opacity=".6"/><circle cx="458" cy="666" r="2" fill="#e99567" opacity=".6"/><circle cx="595" cy="3" r="3" fill="#e99567" opacity=".6"/><circle cx="132" cy="100" r="1" fill="#e99567" opacity=".6"/><circle cx="269" cy="197" r="2" fill="#e99567" opacity=".6"/><circle cx="406" cy="294" r="3" fill="#e99567" opacity=".6"/><circle cx="543" cy="391" r="1" fill="#e99567" opacity=".6"/><circle cx="80" cy="488" r="2" fill="#e99567" opacity=".6"/><circle cx="217" cy="585" r="3" fill="#e99567" opacity=".6"/><circle cx="354" cy="682" r="1" fill="#e99567" opacity=".6"/><circle cx="491" cy="19" r="2" fill="#e99567" opacity=".6"/><circle cx="28" cy="116" r="3" fill="#e99567" opacity=".6"/><circle cx="165" cy="213" r="1" fill="#e99567" opacity=".6"/><path d="M0 755Q300 650 600 755" fill="none" stroke="#e99567" opacity=".4"/></svg>