<svg xmlns="http://www.w3.org/2000/svg" viewBox="0 0 600 800"><defs><radialGradient id="g"><stop stop-color="#9aaff4" stop-opacity=".7"/><stop offset="1" stop-color="#080e1a"/></radialGradient><linearGradient id="r" x2="1" y2="1"><stop stop-color="#9aaff4"/><stop offset=".5" stop-color="#243548"/><stop offset="1" stop-color="#0b1422"/></linearGradient><filter id="b"><feGaussianBlur stdDeviation="13"/></filter></defs><rect width="600" height="800" fill="#090e19"/><rect width="600" height="800" fill="url(#g)"/><circle cx="300" cy="280" r="140" fill="none" stroke="#9aaff4" stroke-width="2" opacity=".6"/><circle cx="300" cy="280" r="120" fill="none" stroke="#9aaff4" opacity=".25"/><path d="M0 640L115 405 190 560 320 360 450 580 535 440 600 590V800H0" fill="#0b1521"/><path d="M135 780L200 490 260 385 252 290 300 235 348 290 340 385 400 490 465 780Z" fill="url(#r)" stroke="#9aaff4" stroke-opacity=".4"/><path d="M218 330L170 180 274 258 300 205 328 258 430 180 382 330 338 305 300 325 262 305Z" fill="url(#r)" stroke="#9aaff4"/><path d="M265 335L287 344M313 344L335 335" stroke="#9aaff4" stroke-width="5"/><path d="M300 395L350 483 300 572 250 483Z" fill="#9aaff4" opacity=".3" filter="url(#b)"/><path d="M300 419L328 481 300 515 272 481Z" fill="#9aaff4"/><path d="M200 490L105 620 180 670M400 490L495 620 420 670" fill="none" stroke="#9aaff4" stroke-width="4" opacity=".6"/><circle cx="185" cy="95" r="1" fill="#9aaff4" opacity=".6"/><circle cx="322" cy="192" r="2" fill="#9aaff4" opacity=".6"/><circle cx="459" cy="289" r="3" fill="#9aaff4" opacity=".6"/><circle cx="596" cy="386" r="1" fill="#9aaff4" opacity=".6"/><circle cx="133" cy="483" r="2" fill="#9aaff4" opacity=".6"/><circle cx="270" cy="580" r="3" fill="#9aaff4" opacity=".6"/><circle cx="407" cy="677" r="1" fill="#9aaff4" opacity=".6"/><circle cx="544" cy="14" r="2" fill="#9aaff4" opacity=".6"/><circle cx="81" cy="111" r="3" fill="#9aaff4" opacity=".6"/><circle cx="218" cy="208" r="1" fill="#9aaff4" opacity=".6"/><circle cx="355" cy="305" r="2" fill="#9aaff4" opacity=".6"/><circle cx="492" cy="402" r="3" fill="#9aaff4" opacity=".6"/><circle cx="29" cy="499" r="1" fill="#9aaff4" opacity=".6"/><circle cx="166" cy="596" r="2" fill="#9aaff4" opacity=".6"/><circle cx="303" cy="693" r="3" fill="#9aaff4" opacity=".6"/><circle cx="440" cy="30" r="1" fill="#9aaff4" opacity=".6"/><circle cx="577" cy="127" r="2" fill="#9aaff4" opacity=".6"/><circle cx="114" cy="224" r="3" fill="#9aaff4" opacity=".6"/><circle cx="251" cy="321" r="1" fill="#9aaff4" opacity=".6"/><circle cx="388" cy="418" r="2" fill="#9aaff4" opacity=".6"/><circle cx="525" cy="515" r="3" fill="#9aaff4" opacity=".6"/><circle cx="62" cy="612" r="1" fill="#9aaff4" opacity=".6"/><path d="M0 755Q300 650 600 755" fill="none" stroke="#9aaff4" opacity=".4"/></svg>